<svg xmlns="http://www.w3.org/2000/svg" viewBox="0 0 64 64">
<!-- Settings (UnaOS's own design): an eight-tooth gear on a slate tile. -->
<rect x="2" y="2" width="60" height="60" rx="13" fill="#4a5568"/>
<rect x="28" y="9" width="8" height="10" rx="1.5" fill="#e2e8f0" transform="rotate(0 32 32)"/><rect x="28" y="9" width="8" height="10" rx="1.5" fill="#e2e8f0" transform="rotate(45 32 32)"/><rect x="28" y="9" width="8" height="10" rx="1.5" fill="#e2e8f0" transform="rotate(90 32 32)"/><rect x="28" y="9" width="8" height="10" rx="1.5" fill="#e2e8f0" transform="rotate(135 32 32)"/><rect x="28" y="9" width="8" height="10" rx="1.5" fill="#e2e8f0" transform="rotate(180 32 32)"/><rect x="28" y="9" width="8" height="10" rx="1.5" fill="#e2e8f0" transform="rotate(225 32 32)"/><rect x="28" y="9" width="8" height="10" rx="1.5" fill="#e2e8f0" transform="rotate(270 32 32)"/><rect x="28" y="9" width="8" height="10" rx="1.5" fill="#e2e8f0" transform="rotate(315 32 32)"/>
<circle cx="32" cy="32" r="15" fill="#e2e8f0"/>
<circle cx="32" cy="32" r="6" fill="#4a5568"/>
</svg>
