<svg width="64" height="64" viewBox="0 0 64 64" fill="none" xmlns="http://www.w3.org/2000/svg">
<rect width="64" height="64" rx="16" fill="url(#paint0_linear)"/>
<path d="M32 6L44 16L40 46L32 56L24 46L20 16L32 6Z" fill="url(#paint1_linear)"/>
<path d="M32 6L44 16L40 46L32 56" fill="url(#paint2_linear)"/>
<path d="M32 6L20 16L24 46L32 56" fill="url(#paint3_linear)"/>
<path d="M20 16L8 26V46L24 56V36L20 16Z" fill="#1A237E"/>
<path d="M44 16L56 26V46L40 56V36L44 16Z" fill="#1A237E"/>
<path d="M24 46L32 56L40 46" fill="#283593"/>
<path d="M8 26L24 36L32 31L16 21L8 26Z" fill="#3949AB"/>
<path d="M56 26L40 36L32 31L48 21L56 26Z" fill="#3949AB"/>
<path d="M24 36V56L8 46V26L24 36Z" fill="#303F9F"/>
<path d="M40 36V56L56 46V26L40 36Z" fill="#303F9F"/>
<path d="M32 31L24 36L40 46L48 41L32 31Z" fill="#5C6BC0"/>
<path d="M32 6L36 10L32 14L28 10L32 6Z" fill="#E8EAF6"/>
<defs>
<linearGradient id="paint0_linear" x1="32" y1="0" x2="32" y2="64" gradientUnits="userSpaceOnUse">
<stop stop-color="#3F51B5"/>
<stop offset="1" stop-color="#1A237E"/>
</linearGradient>
<linearGradient id="paint1_linear" x1="32" y1="6" x2="32" y2="56" gradientUnits="userSpaceOnUse">
<stop stop-color="#00BCD4"/>
<stop offset="1" stop-color="#3F51B5"/>
</linearGradient>
<linearGradient id="paint2_linear" x1="38" y1="6" x2="38" y2="56" gradientUnits="userSpaceOnUse">
<stop stop-color="#4DD0E1"/>
<stop offset="1" stop-color="#5C6BC0"/>
</linearGradient>
<linearGradient id="paint3_linear" x1="26" y1="6" x2="26" y2="56" gradientUnits="userSpaceOnUse">
<stop stop-color="#4DD0E1"/>
<stop offset="1" stop-color="#5C6BC0"/>
</linearGradient>
</defs>
</svg>
